# xmcd CD database file
#
# Track frame offsets:
#	150
#	30095
#	79386
#	102786
#	133858
#	145900
#	159022
#	174541
#	187315
#	199747
#	215351
#	231902
#	251862
#	270349
#
# Disc length: 3785 seconds
#
# Revision: 0
# Processed by: cddbd v1.5.2PL0 Copyright (c) Steve Scherf et al.
# Submitted via: CDex 1.51
#
DISCID=c10ec70e
DTITLE=Horace Silver Quintet With Art Farmer - Complete Recordings CD 3
DYEAR=1954
DGENRE=Jazz
TTITLE0=Pyramid
TTITLE1=Moon Rays
TTITLE2=Safari
TTITLE3=Ill Wind
TTITLE4=Evening In Paris
TTITLE5=Wildwood
TTITLE6=Elephant Walk
TTITLE7=Tijuana
TTITLE8=Social Call
TTITLE9=You'll  Always Be The One I Love 
TTITLE10=Smoke Signal
TTITLE11=In A Meditating Mood
TTITLE12=Speculation
TTITLE13=Krerry Dance
EXTD=YEAR: 1954
EXTT0=
EXTT1=
EXTT2=
EXTT3=
EXTT4=
EXTT5=
EXTT6=
EXTT7=
EXTT8=
EXTT9=
EXTT10=
EXTT11=
EXTT12=
EXTT13=
PLAYORDER=
